<?xml version="1.0" encoding="UTF-8" standalone="no"?>
<svg
   height="24px"
   viewBox="0 0 24 24"
   width="24px"
   fill="#000000"
   version="1.1"
   id="svg131"
   sodipodi:docname="icon.svg"
   inkscape:version="1.2.1 (1:1.2.1+202210291243+9c6d41e410)"
   xmlns:inkscape="http://www.inkscape.org/namespaces/inkscape"
   xmlns:sodipodi="http://sodipodi.sourceforge.net/DTD/sodipodi-0.dtd"
   xmlns="http://www.w3.org/2000/svg"
   xmlns:svg="http://www.w3.org/2000/svg">
  <defs
     id="defs135" />
  <sodipodi:namedview
     id="namedview133"
     pagecolor="#ffffff"
     bordercolor="#000000"
     borderopacity="0.25"
     inkscape:showpageshadow="2"
     inkscape:pageopacity="0.0"
     inkscape:pagecheckerboard="0"
     inkscape:deskcolor="#d1d1d1"
     showgrid="false"
     inkscape:zoom="20.875"
     inkscape:cx="2.6107784"
     inkscape:cy="12.191617"
     inkscape:window-width="1314"
     inkscape:window-height="704"
     inkscape:window-x="0"
     inkscape:window-y="0"
     inkscape:window-maximized="1"
     inkscape:current-layer="svg131" />
  <path
     d="M0 0h24v24H0z"
     fill="none"
     id="path127" />
  <path
     d="M21.41 11.58l-9-9C12.05 2.22 11.55 2 11 2H4c-1.1 0-2 .9-2 2v7c0 .55.22 1.05.59 1.42l9 9c.36.36.86.58 1.41.58.55 0 1.05-.22 1.41-.59l7-7c.37-.36.59-.86.59-1.41 0-.55-.23-1.06-.59-1.42zM5.5 7C4.67 7 4 6.33 4 5.5S4.67 4 5.5 4 7 4.67 7 5.5 6.33 7 5.5 7zm11.77 8.27L13 19.54l-4.27-4.27C8.28 14.81 8 14.19 8 13.5c0-1.38 1.12-2.5 2.5-2.5.69 0 1.32.28 1.77.74l.73.72.73-.73c.45-.45 1.08-.73 1.77-.73 1.38 0 2.5 1.12 2.5 2.5 0 .69-.28 1.32-.73 1.77z"
     id="path129" />
  <path
     style="fill:#ff15bd;stroke-width:0.0479042;stroke:#f000d4;stroke-opacity:0.89999998;fill-opacity:0.80784315"
     d="M 12.572865,21.921203 C 11.981826,21.777613 12.13792,21.921251 7.1077543,16.89169 1.9839938,11.768529 2.2006476,12.006081 2.0653694,11.362912 1.9904315,11.006625 1.9908959,3.9842286 2.0658808,3.6311004 2.2295246,2.8604491 2.8604491,2.2295246 3.6311004,2.0658808 3.8063789,2.0286613 5.0045125,2.011976 7.5018836,2.011976 c 4.0707254,0 4.0470414,-0.00173 4.5557034,0.3332665 0.174961,0.1152269 1.991195,1.9000449 4.907924,4.8230291 5.063829,5.0746894 4.850295,4.8371314 4.979823,5.5401014 0.04342,0.235667 0.04444,0.378723 0.0041,0.579522 -0.133532,0.664904 0.05166,0.455944 -4.024779,4.541197 -2.552967,2.558484 -3.832747,3.808215 -3.984186,3.890639 -0.26505,0.144258 -0.719915,0.269903 -0.956534,0.264219 -0.09327,-0.0022 -0.278254,-0.03048 -0.411082,-0.06275 z m 2.737034,-4.639766 c 1.851944,-1.861473 2.278385,-2.314521 2.401092,-2.550898 0.604635,-1.164747 0.274649,-2.583316 -0.767966,-3.301393 -0.568145,-0.391297 -1.303652,-0.537679 -1.963727,-0.390826 -0.577906,0.128571 -0.894152,0.31572 -1.466013,0.86756 l -0.507297,0.489536 -0.45509,-0.429051 c -0.71237,-0.671611 -1.036629,-0.854401 -1.698069,-0.957233 -1.1861545,-0.184407 -2.4035131,0.576185 -2.7577277,1.722998 -0.1195564,0.387079 -0.1284393,1.077101 -0.018676,1.450792 0.1889188,0.643179 0.2326831,0.694821 2.6258157,3.098515 1.239441,1.24491 2.276533,2.263473 2.30465,2.263473 0.02812,0 1.06447,-1.018563 2.303008,-2.263473 z M 6.0594071,6.9111875 C 6.3964889,6.8036968 6.803944,6.3906984 6.9233854,6.035455 7.1820834,5.2660357 6.8588331,4.4618416 6.1536674,4.1205223 5.9623132,4.0279016 5.8370527,4.0050252 5.508982,4.0027829 5.1573607,4.0003796 5.0647935,4.0181714 4.8306326,4.1331632 4.5182793,4.2865538 4.2492341,4.5626522 4.1025199,4.8803638 3.952677,5.2048508 3.961445,5.825014 4.1205223,6.1536674 4.4733561,6.8826218 5.2263816,7.1768283 6.0594071,6.9111875 Z"
     id="path379" />
</svg>
